# xmcd CD database file
#
# Track frame offsets:
#	150
#	20442
#	35512
#	54184
#	72504
#	85697
#	107149
#	129517
#	148792
#	167559
#	189059
#	206139
#	227618
#	248662
#
# Disc length: 3566 seconds
#
# Revision: 0
# Processed by: cddbd v1.4PL0 Copyright (c) Steve Scherf et al.
# Submitted via: Feurio! 1.64 - http://www.feurio.com
#
DISCID=b60dec0e
DTITLE=Jewel - This Way
DYEAR=1900
DGENRE=
TTITLE0=Standing Still
TTITLE1=Jesus Loves You
TTITLE2=Everybody Needs Someone Sometime
TTITLE3=Break Me
TTITLE4=Do You Want To Play
TTITLE5=Till We Run Out Of Road
TTITLE6=Serve The Ego
TTITLE7=This Way
TTITLE8=Cleveland
TTITLE9=I Won´t Walk Way
TTITLE10=Love Me, Just Leave My Alone
TTITLE11=The New Wild West
TTITLE12=Grey Mater ( Live )
TTITLE13=Sometimes It Be That Way ( Live )
EXTD=
EXTT0=
EXTT1=
EXTT2=
EXTT3=
EXTT4=
EXTT5=
EXTT6=
EXTT7=
EXTT8=
EXTT9=
EXTT10=
EXTT11=
EXTT12=
EXTT13=
PLAYORDER=
